<svg xmlns="http://www.w3.org/2000/svg" width="47" height="47" viewBox="0 0 47 47">
    <path fill="#EC1E23" fill-rule="evenodd" d="M0 47h44.511c2.489-.9 3.111-2.736 1.867-5.506-1.245-2.771-3.724-9.638-7.439-20.6l-7.626 22.929c-.671 1.399-1.744 2.098-3.218 2.098-2.212 0-3.494-.91-3.494-2.098 0-1.188.89-4.337 1.484-5.847.594-1.51 9.304-29.384 10.168-31.71.865-2.326 2.772-4.305 3.866-5.114C40.85.612 41.34.229 41.595 0H21.677c-3.63 1.82-5.89 4.522-6.782 8.105-.892 3.582-4.435 14.853-10.63 33.81-.47 1.494-1.107 2.535-1.91 3.124A24.998 24.998 0 0 0 0 47z"/>
</svg>
