<svg xmlns="http://www.w3.org/2000/svg" width="86" height="62" viewBox="0 0 86 62">
    <g fill="none" fill-rule="evenodd" transform="translate(-2 -1)">
        <rect width="80" height="50" x="4.666" y="6.566" fill="#634093" rx="7" transform="rotate(-10 44.666 31.566)"/>
        <path fill="#FFF" d="M17.072 43.88c.14 4.116 1.482 4.9 6.843 4.9.067.025.067-3.074 0-9.296 1.5 1.554 3.546 2.318 6.14 2.292 3.326 0 7.523-1.89 8.4-7.642.878-5.753.37-14.475-8.622-14.622-2.946 0-5.198 1.102-6.758 3.305-.388-2.095-1.218-3.142-2.49-3.142h-4.316c-.838-.063-1.257.495-1.257 1.673 0 1.767-.145 3.103.57 3.103s1.35.017 1.35.57c0 .552 0 14.743.14 18.86zM64.932 20h8v21h-8zM60.666 34.505c.257.194.385 1.938.385 5.234-3.083 1.194-6.433 1.792-10.05 1.792-5.427 0-9.451-4.294-9.973-7.856-.522-3.562-1.148-9.066 4.296-12.28 5.444-3.215 11.69-.602 12.917.141 1.227.744 3.62 1.926 3.62 5.044 0 3.118-3.88 6.895-6.857 6.895-1.984 0-4.136-.352-6.455-1.055-.86 2.374.335 3.561 3.587 3.561 4.878 0 8.144-1.765 8.53-1.476z"/>
        <path fill="#EE8D19" d="M65.132 17.054h8c.743-4.036-.59-6.054-4-6.054s-4.744 2.018-4 6.054z"/>
        <ellipse cx="28.188" cy="31.202" fill="#634093" rx="4" ry="5" transform="rotate(-3 28.188 31.202)"/>
        <path fill="#634093" d="M48.489 28.916c2.559.448 4.325.484 5.299.11 1.46-.561 1.24-2.713.288-3.13-.951-.417-2.37-.748-3.849-.135-.985.41-1.564 1.46-1.738 3.155z"/>
    </g>
</svg>
