<?xml version="1.0" standalone="no"?>
<!DOCTYPE svg PUBLIC "-//W3C//DTD SVG 20010904//EN"
 "http://www.w3.org/TR/2001/REC-SVG-20010904/DTD/svg10.dtd">
<svg version="1.0" xmlns="http://www.w3.org/2000/svg"
 width="274.000000pt" height="274.000000pt" viewBox="0 0 274.000000 274.000000"
 preserveAspectRatio="xMidYMid meet">
<metadata>
Created by potrace 1.11, written by Peter Selinger 2001-2013
</metadata>
<g transform="translate(0.000000,274.000000) scale(0.100000,-0.100000)"
fill="#000000" stroke="none">
<path d="M419 2711 l-29 -29 0 -957 0 -957 29 -29 29 -29 186 0 c110 0 195 4
209 11 40 18 50 48 52 144 3 159 24 225 88 282 66 58 151 75 377 75 262 1 359
-20 423 -91 69 -76 71 -92 73 -596 1 -247 2 -458 3 -467 0 -9 13 -29 28 -43
28 -25 28 -25 221 -25 l194 0 29 29 29 30 -2 815 -3 815 -23 23 -23 23 -507 2
c-279 1 -552 2 -607 3 -157 4 -234 42 -278 140 -19 42 -20 66 -22 420 -1 402
-2 406 -52 429 -14 7 -99 11 -209 11 l-186 0 -29 -29z"/>
<path d="M444 500 c-50 -20 -54 -40 -54 -251 l0 -197 31 -26 c31 -26 31 -26
223 -26 212 0 226 4 245 63 5 17 10 106 9 197 0 180 -8 218 -54 239 -30 13
-368 14 -400 1z"/>
</g>
</svg>
